<?xml version="1.0" standalone="no"?>
<!DOCTYPE svg PUBLIC "-//W3C//DTD SVG 20010904//EN"
 "http://www.w3.org/TR/2001/REC-SVG-20010904/DTD/svg10.dtd">
<svg version="1.0" xmlns="http://www.w3.org/2000/svg"
 width="120.000000pt" height="120.000000pt" viewBox="0 0 120.000000 120.000000"
 preserveAspectRatio="xMidYMid meet">
<metadata>
Created by potrace 1.14, written by Peter Selinger 2001-2017
</metadata>
<g transform="translate(0.000000,120.000000) scale(0.100000,-0.100000)"
fill="#000000" stroke="none">
<path d="M240 980 c0 -20 -5 -30 -15 -30 -10 0 -15 -11 -15 -35 0 -24 5 -35
15 -35 10 0 15 11 15 35 0 24 5 35 15 35 8 0 15 7 15 15 0 13 20 15 120 15
100 0 120 -2 120 -15 0 -11 12 -15 50 -15 l50 0 0 -50 c0 -38 4 -50 15 -50 8
0 15 -9 15 -20 0 -11 7 -20 15 -20 8 0 15 9 15 20 0 11 -7 20 -15 20 -12 0
-15 14 -15 65 l0 65 -65 0 c-51 0 -65 3 -65 15 0 13 -22 15 -135 15 l-135 0 0
-30z"/>
<path d="M170 845 c0 -24 -5 -35 -15 -35 -12 0 -15 -15 -15 -79 0 -70 -2 -79
-20 -84 -11 -3 -20 -12 -20 -21 0 -9 -7 -16 -15 -16 -8 0 -15 -7 -15 -15 0 -8
7 -15 15 -15 10 0 15 -11 15 -35 0 -28 4 -35 20 -35 11 0 20 -7 20 -15 0 -8 7
-15 15 -15 8 0 15 -6 15 -14 0 -19 73 -31 129 -21 37 6 41 5 41 -14 0 -12 6
-21 15 -21 10 0 15 11 15 35 0 28 4 35 20 35 16 0 20 7 20 31 0 22 -5 32 -20
36 -11 3 -20 12 -20 19 0 8 -7 14 -15 14 -8 0 -15 7 -15 15 0 12 -14 15 -70
15 -56 0 -70 -3 -70 -15 0 -8 -7 -15 -15 -15 -8 0 -15 7 -15 15 0 8 -7 15 -15
15 -8 0 -15 7 -15 15 0 8 7 15 15 15 12 0 15 16 15 85 0 69 3 85 15 85 10 0
15 11 15 35 0 24 -5 35 -15 35 -10 0 -15 -11 -15 -35z"/>
<path d="M680 695 c0 -96 3 -115 15 -115 11 0 15 -12 15 -50 0 -38 4 -50 15
-50 8 0 15 -9 15 -20 0 -11 7 -20 15 -20 8 0 15 9 15 20 0 11 -7 20 -15 20
-11 0 -15 12 -15 50 0 38 -4 50 -15 50 -12 0 -15 19 -15 115 0 96 -3 115 -15
115 -12 0 -15 -19 -15 -115z"/>
<path d="M210 745 c0 -24 5 -35 15 -35 10 0 15 11 15 35 0 24 -5 35 -15 35
-10 0 -15 -11 -15 -35z"/>
<path d="M410 730 c0 -11 7 -20 15 -20 8 0 15 9 15 20 0 11 -7 20 -15 20 -8 0
-15 -9 -15 -20z"/>
<path d="M100 445 c0 -24 -5 -35 -15 -35 -10 0 -15 -11 -15 -35 0 -24 5 -35
15 -35 10 0 15 -10 15 -30 l0 -30 135 0 c128 0 135 -1 135 -20 0 -16 7 -20 35
-20 24 0 35 -5 35 -15 0 -13 22 -15 135 -15 113 0 135 2 135 15 0 10 10 15 30
15 23 0 30 4 30 20 0 16 -7 20 -30 20 -23 0 -30 -4 -30 -20 0 -19 -7 -20 -135
-20 -128 0 -135 1 -135 20 0 16 -7 20 -35 20 -24 0 -35 5 -35 15 0 8 -7 15
-15 15 -10 0 -15 11 -15 35 l0 35 -50 0 c-43 0 -50 -3 -50 -20 0 -13 -7 -20
-20 -20 -16 0 -20 7 -20 35 0 32 -2 35 -30 35 -28 0 -30 3 -30 35 0 28 -4 35
-20 35 -16 0 -20 -7 -20 -35z"/>
<path d="M880 460 c0 -17 -7 -20 -50 -20 -38 0 -50 -4 -50 -15 0 -11 12 -15
50 -15 38 0 50 4 50 15 0 10 10 15 30 15 20 0 30 -5 30 -15 0 -10 11 -15 35
-15 24 0 35 -5 35 -15 0 -8 6 -15 14 -15 7 0 16 -9 19 -20 3 -11 12 -20 21
-20 9 0 16 8 16 20 0 16 7 20 35 20 24 0 35 5 35 15 0 8 -9 15 -20 15 -11 0
-20 7 -20 15 0 8 -7 15 -15 15 -8 0 -15 -7 -15 -15 0 -10 -11 -15 -35 -15 -24
0 -35 5 -35 15 0 10 -11 15 -35 15 -28 0 -35 4 -35 20 0 16 -7 20 -30 20 -23
0 -30 -4 -30 -20z"/>
<path d="M410 425 c0 -8 7 -15 15 -15 8 0 15 7 15 15 0 8 -7 15 -15 15 -8 0
-15 -7 -15 -15z"/>
<path d="M440 365 c0 -8 7 -15 15 -15 8 0 15 7 15 15 0 8 -7 15 -15 15 -8 0
-15 -7 -15 -15z"/>
<path d="M840 325 c0 -10 -10 -15 -30 -15 -20 0 -30 -5 -30 -15 0 -10 10 -15
30 -15 20 0 30 5 30 15 0 11 12 15 50 15 38 0 50 -4 50 -15 0 -11 12 -15 50
-15 49 0 50 1 50 30 0 20 -5 30 -15 30 -8 0 -15 -7 -15 -15 0 -10 -11 -15 -35
-15 -24 0 -35 5 -35 15 0 11 -12 15 -50 15 -38 0 -50 -4 -50 -15z"/>
</g>
</svg>
